<?xml version="1.0" encoding="utf-8"?>
<svg viewBox="0 0 240 40" xmlns="http://www.w3.org/2000/svg">
  <path fill="#FFF" d="M 18.854 24.164 L 18.854 31.091 C 18.854 31.716 18.626 32.257 18.169 32.715 C 17.712 33.172 17.17 33.4 16.545 33.4 L 7.309 33.4 C 6.684 33.4 6.143 33.172 5.685 32.715 C 5.228 32.257 5 31.716 5 31.091 L 5 24.164 C 5 23.538 5.228 22.997 5.685 22.541 C 6.143 22.083 6.684 21.855 7.309 21.855 L 16.545 21.855 C 17.17 21.855 17.712 22.083 18.169 22.541 C 18.626 22.997 18.854 23.538 18.854 24.164 Z M 18.854 10.309 L 18.854 17.236 C 18.854 17.862 18.626 18.403 18.169 18.86 C 17.712 19.317 17.17 19.546 16.545 19.546 L 7.309 19.546 C 6.684 19.546 6.143 19.317 5.685 18.86 C 5.228 18.403 5 17.862 5 17.236 L 5 10.309 C 5 9.684 5.228 9.143 5.685 8.685 C 6.143 8.229 6.684 8 7.309 8 L 16.545 8 C 17.17 8 17.712 8.229 18.169 8.685 C 18.626 9.143 18.854 9.684 18.854 10.309 Z M 35.018 24.164 L 35.018 31.091 C 35.018 31.716 34.79 32.257 34.332 32.715 C 33.875 33.172 33.334 33.4 32.708 33.4 L 23.473 33.4 C 22.848 33.4 22.306 33.172 21.849 32.715 C 21.392 32.257 21.164 31.716 21.164 31.091 L 21.164 24.164 C 21.164 23.538 21.392 22.997 21.849 22.541 C 22.306 22.083 22.848 21.855 23.473 21.855 L 32.708 21.855 C 33.334 21.855 33.875 22.083 34.332 22.541 C 34.79 22.997 35.018 23.538 35.018 24.164 Z M 35.018 10.309 L 35.018 17.236 C 35.018 17.862 34.79 18.403 34.332 18.86 C 33.875 19.317 33.334 19.546 32.708 19.546 L 23.473 19.546 C 22.848 19.546 22.306 19.317 21.849 18.86 C 21.392 18.403 21.164 17.862 21.164 17.236 L 21.164 10.309 C 21.164 9.684 21.392 9.143 21.849 8.685 C 22.306 8.229 22.848 8 23.473 8 L 32.708 8 C 33.334 8 33.875 8.229 34.332 8.685 C 34.79 9.143 35.018 9.684 35.018 10.309 Z"/>
  <path fill="#FFF" d="M 60 5 C 62.721 5 65.231 5.671 67.529 7.012 C 69.827 8.353 71.647 10.173 72.988 12.471 C 74.329 14.769 75 17.279 75 20 C 75 22.721 74.329 25.231 72.988 27.529 C 71.647 29.827 69.827 31.647 67.529 32.988 C 65.231 34.329 62.721 35 60 35 C 57.279 35 54.769 34.329 52.471 32.988 C 50.173 31.647 48.353 29.827 47.012 27.529 C 45.671 25.231 45 22.721 45 20 C 45 17.279 45.671 14.769 47.012 12.471 C 48.353 10.173 50.173 8.353 52.471 7.012 C 54.769 5.671 57.279 5 60 5 Z M 62.5 29.356 L 62.5 25.645 C 62.5 25.462 62.441 25.309 62.324 25.186 C 62.207 25.062 62.064 25 61.895 25 L 58.145 25 C 57.975 25 57.826 25.065 57.695 25.195 C 57.565 25.325 57.5 25.475 57.5 25.645 L 57.5 29.356 C 57.5 29.525 57.565 29.674 57.695 29.805 C 57.826 29.935 57.975 30 58.145 30 L 61.895 30 C 62.064 30 62.207 29.938 62.324 29.814 C 62.441 29.691 62.5 29.538 62.5 29.356 Z M 62.461 22.637 L 62.813 10.508 C 62.813 10.352 62.747 10.234 62.617 10.156 C 62.487 10.052 62.331 10 62.148 10 L 57.852 10 C 57.669 10 57.513 10.052 57.383 10.156 C 57.253 10.234 57.188 10.352 57.188 10.508 L 57.52 22.637 C 57.52 22.767 57.585 22.881 57.715 22.979 C 57.845 23.076 58.001 23.125 58.184 23.125 L 61.797 23.125 C 61.979 23.125 62.132 23.076 62.256 22.979 C 62.38 22.881 62.448 22.767 62.461 22.637 Z"/>
  <path fill="#FFF" d="M 100 5.36 C 102.721 5.36 105.231 6.031 107.529 7.372 C 109.827 8.713 111.647 10.533 112.988 12.831 C 114.329 15.129 115 17.639 115 20.36 C 115 23.629 114.046 26.568 112.139 29.179 C 110.231 31.789 107.767 33.596 104.746 34.599 C 104.395 34.664 104.134 34.618 103.965 34.462 C 103.796 34.306 103.711 34.11 103.711 33.876 C 103.711 33.837 103.714 33.339 103.721 32.382 C 103.727 31.425 103.73 30.549 103.73 29.755 C 103.73 28.492 103.392 27.568 102.715 26.982 C 103.457 26.903 104.124 26.786 104.717 26.63 C 105.309 26.474 105.921 26.22 106.553 25.868 C 107.184 25.517 107.712 25.084 108.135 24.569 C 108.558 24.055 108.903 23.372 109.17 22.519 C 109.437 21.666 109.57 20.686 109.57 19.579 C 109.57 18.03 109.056 16.689 108.027 15.556 C 108.509 14.371 108.457 13.043 107.871 11.571 C 107.507 11.454 106.979 11.526 106.289 11.786 C 105.599 12.047 105 12.333 104.492 12.646 L 103.75 13.114 C 102.539 12.776 101.289 12.607 100 12.607 C 98.711 12.607 97.461 12.776 96.25 13.114 C 96.042 12.971 95.765 12.795 95.42 12.587 C 95.075 12.379 94.531 12.128 93.789 11.835 C 93.047 11.542 92.494 11.454 92.129 11.571 C 91.543 13.043 91.491 14.371 91.973 15.556 C 90.944 16.689 90.43 18.03 90.43 19.579 C 90.43 20.686 90.563 21.663 90.83 22.509 C 91.097 23.355 91.439 24.039 91.855 24.56 C 92.272 25.081 92.796 25.517 93.428 25.868 C 94.059 26.22 94.671 26.474 95.264 26.63 C 95.856 26.786 96.523 26.903 97.266 26.982 C 96.758 27.45 96.439 28.121 96.309 28.993 C 96.035 29.123 95.742 29.221 95.43 29.286 C 95.117 29.351 94.746 29.384 94.316 29.384 C 93.887 29.384 93.46 29.244 93.037 28.964 C 92.614 28.684 92.253 28.277 91.953 27.743 C 91.706 27.327 91.39 26.988 91.006 26.728 C 90.622 26.467 90.3 26.311 90.039 26.259 L 89.648 26.2 C 89.375 26.2 89.186 26.23 89.082 26.288 C 88.978 26.347 88.945 26.422 88.984 26.513 C 89.023 26.604 89.082 26.695 89.16 26.786 C 89.238 26.877 89.323 26.956 89.414 27.021 L 89.551 27.118 C 89.837 27.248 90.12 27.496 90.4 27.86 C 90.68 28.225 90.885 28.557 91.016 28.857 L 91.211 29.306 C 91.38 29.801 91.667 30.201 92.07 30.507 C 92.474 30.813 92.91 31.008 93.379 31.093 C 93.848 31.177 94.3 31.223 94.736 31.23 C 95.173 31.236 95.534 31.213 95.82 31.161 L 96.27 31.083 C 96.27 31.578 96.273 32.154 96.279 32.812 C 96.286 33.469 96.289 33.824 96.289 33.876 C 96.289 34.11 96.204 34.306 96.035 34.462 C 95.866 34.618 95.605 34.664 95.254 34.599 C 92.233 33.596 89.769 31.789 87.861 29.179 C 85.954 26.568 85 23.629 85 20.36 C 85 17.639 85.671 15.129 87.012 12.831 C 88.353 10.533 90.173 8.713 92.471 7.372 C 94.769 6.031 97.279 5.36 100 5.36 Z M 90.684 26.903 C 90.723 26.812 90.677 26.734 90.547 26.669 C 90.417 26.63 90.332 26.643 90.293 26.708 C 90.254 26.799 90.3 26.877 90.43 26.943 C 90.547 27.021 90.632 27.008 90.684 26.903 Z M 91.289 27.568 C 91.38 27.502 91.367 27.398 91.25 27.255 C 91.12 27.138 91.016 27.118 90.938 27.196 C 90.846 27.261 90.859 27.366 90.977 27.509 C 91.107 27.639 91.211 27.659 91.289 27.568 Z M 91.875 28.446 C 91.992 28.355 91.992 28.232 91.875 28.075 C 91.771 27.906 91.66 27.867 91.543 27.958 C 91.426 28.023 91.426 28.14 91.543 28.31 C 91.66 28.479 91.771 28.525 91.875 28.446 Z M 92.695 29.267 C 92.8 29.163 92.773 29.039 92.617 28.896 C 92.461 28.739 92.331 28.72 92.227 28.837 C 92.109 28.941 92.135 29.065 92.305 29.208 C 92.461 29.364 92.591 29.384 92.695 29.267 Z M 93.809 29.755 C 93.848 29.612 93.763 29.508 93.555 29.443 C 93.359 29.39 93.236 29.436 93.184 29.579 C 93.132 29.722 93.216 29.82 93.438 29.872 C 93.633 29.95 93.757 29.911 93.809 29.755 Z M 95.039 29.853 C 95.039 29.683 94.928 29.612 94.707 29.638 C 94.499 29.638 94.395 29.709 94.395 29.853 C 94.395 30.022 94.505 30.094 94.727 30.068 C 94.935 30.068 95.039 29.996 95.039 29.853 Z M 96.172 29.657 C 96.146 29.514 96.029 29.456 95.82 29.482 C 95.612 29.521 95.521 29.618 95.547 29.775 C 95.573 29.931 95.69 29.983 95.898 29.931 C 96.107 29.879 96.198 29.788 96.172 29.657 Z"/>
  <path fill="#FFF" d="M 140 14.092 L 134.375 14.092 L 134.375 21.181 L 140 21.181 L 140 14.092 Z M 141.875 25.909 L 141.875 28.272 L 132.5 28.272 L 132.5 25.909 L 141.875 25.909 Z M 141.875 11.728 L 141.875 23.545 L 132.5 23.545 L 132.5 11.728 L 141.875 11.728 Z M 151.25 25.909 L 151.25 28.272 L 143.75 28.272 L 143.75 25.909 L 151.25 25.909 Z M 151.25 21.181 L 151.25 23.545 L 143.75 23.545 L 143.75 21.181 L 151.25 21.181 Z M 151.25 16.455 L 151.25 18.819 L 143.75 18.819 L 143.75 16.455 L 151.25 16.455 Z M 151.25 11.728 L 151.25 14.092 L 143.75 14.092 L 143.75 11.728 L 151.25 11.728 Z M 128.75 29.456 L 128.75 11.728 L 126.875 11.728 L 126.875 29.456 C 126.875 29.774 126.968 30.052 127.153 30.286 C 127.339 30.52 127.559 30.636 127.812 30.636 C 128.066 30.636 128.286 30.52 128.472 30.286 C 128.657 30.052 128.75 29.774 128.75 29.456 Z M 153.125 29.456 L 153.125 9.364 L 130.625 9.364 L 130.625 29.456 C 130.625 29.861 130.571 30.254 130.464 30.636 L 152.187 30.636 C 152.441 30.636 152.661 30.52 152.847 30.286 C 153.032 30.052 153.125 29.774 153.125 29.456 Z M 155 7 L 155 29.456 C 155 30.441 154.727 31.278 154.18 31.965 C 153.633 32.657 152.969 33 152.187 33 L 127.812 33 C 127.031 33 126.367 32.657 125.82 31.965 C 125.273 31.278 125 30.441 125 29.456 L 125 9.364 L 128.75 9.364 L 128.75 7 L 155 7 Z"/>
  <path fill="#FFF" d="M 179.933 26.5 L 181.883 24.358 L 179.327 21.551 L 177.377 23.694 L 177.377 24.727 L 178.991 24.727 L 178.991 26.5 L 179.933 26.5 Z M 187.333 13.204 C 187.152 13.008 186.969 13.013 186.777 13.223 L 180.891 19.686 C 180.701 19.895 180.695 20.098 180.875 20.295 C 181.054 20.493 181.24 20.487 181.429 20.277 L 187.315 13.814 C 187.506 13.604 187.511 13.402 187.333 13.204 Z M 188.677 24.173 L 188.677 27.682 C 188.677 29.147 188.204 30.4 187.257 31.441 C 186.31 32.481 185.168 33 183.834 33 L 169.843 33 C 168.509 33 167.368 32.481 166.421 31.441 C 165.474 30.4 165 29.147 165 27.682 L 165 12.318 C 165 10.853 165.474 9.6 166.421 8.56 C 167.368 7.521 168.509 7 169.843 7 L 183.834 7 C 184.541 7 185.197 7.154 185.801 7.461 C 185.97 7.548 186.071 7.69 186.104 7.886 C 186.138 8.096 186.088 8.274 185.953 8.422 L 185.13 9.327 C 184.972 9.499 184.793 9.548 184.591 9.474 C 184.333 9.4 184.081 9.363 183.834 9.363 L 169.843 9.363 C 169.103 9.363 168.47 9.653 167.943 10.232 C 167.416 10.81 167.152 11.506 167.152 12.318 L 167.152 27.682 C 167.152 28.494 167.416 29.191 167.943 29.768 C 168.47 30.347 169.103 30.638 169.843 30.638 L 183.834 30.638 C 184.574 30.638 185.208 30.347 185.734 29.768 C 186.261 29.191 186.526 28.494 186.526 27.682 L 186.526 25.355 C 186.526 25.195 186.575 25.06 186.676 24.949 L 187.752 23.767 C 187.921 23.583 188.117 23.54 188.341 23.637 C 188.565 23.736 188.677 23.914 188.677 24.173 Z M 187.063 10.546 L 191.906 15.864 L 180.605 28.273 L 175.762 28.273 L 175.762 22.954 Z M 194.529 12.983 L 192.983 14.681 L 188.14 9.363 L 189.686 7.664 C 190 7.32 190.381 7.147 190.83 7.147 C 191.278 7.147 191.66 7.32 191.973 7.664 L 194.529 10.471 C 194.843 10.816 195 11.234 195 11.727 C 195 12.219 194.843 12.638 194.529 12.983 Z"/>
  <path fill="#FFF" d="M 235 20 C 235 22.031 234.603 23.971 233.809 25.82 C 233.014 27.669 231.947 29.264 230.606 30.605 C 229.264 31.947 227.669 33.014 225.82 33.809 C 223.971 34.603 222.031 35 220 35 C 217.76 35 215.632 34.528 213.613 33.584 C 211.595 32.64 209.876 31.309 208.457 29.59 C 208.366 29.46 208.324 29.313 208.33 29.15 C 208.337 28.988 208.392 28.854 208.496 28.75 L 211.172 26.055 C 211.302 25.938 211.465 25.879 211.66 25.879 C 211.869 25.905 212.018 25.983 212.109 26.113 C 213.06 27.35 214.225 28.307 215.606 28.984 C 216.986 29.662 218.451 30 220 30 C 221.354 30 222.647 29.736 223.877 29.209 C 225.107 28.682 226.172 27.969 227.07 27.07 C 227.969 26.172 228.682 25.107 229.209 23.877 C 229.736 22.647 230 21.354 230 20 C 230 18.646 229.736 17.354 229.209 16.123 C 228.682 14.893 227.969 13.828 227.07 12.93 C 226.172 12.031 225.107 11.318 223.877 10.791 C 222.647 10.264 221.354 10 220 10 C 218.724 10 217.5 10.231 216.328 10.693 C 215.156 11.156 214.115 11.816 213.203 12.676 L 215.879 15.371 C 216.283 15.762 216.374 16.211 216.152 16.719 C 215.931 17.24 215.547 17.5 215 17.5 L 206.25 17.5 C 205.912 17.5 205.619 17.376 205.371 17.129 C 205.124 16.882 205 16.589 205 16.25 L 205 7.5 C 205 6.953 205.26 6.569 205.781 6.348 C 206.289 6.126 206.738 6.218 207.129 6.621 L 209.668 9.141 C 211.061 7.826 212.653 6.807 214.443 6.084 C 216.234 5.361 218.086 5 220 5 C 222.031 5 223.971 5.397 225.82 6.191 C 227.669 6.986 229.264 8.053 230.606 9.395 C 231.947 10.736 233.014 12.331 233.809 14.18 C 234.603 16.029 235 17.969 235 20 Z M 222.5 14.375 L 222.5 23.125 C 222.5 23.307 222.441 23.457 222.324 23.574 C 222.207 23.691 222.057 23.75 221.875 23.75 L 215.625 23.75 C 215.443 23.75 215.293 23.691 215.176 23.574 C 215.059 23.457 215 23.307 215 23.125 L 215 21.875 C 215 21.693 215.059 21.543 215.176 21.426 C 215.293 21.309 215.443 21.25 215.625 21.25 L 220 21.25 L 220 14.375 C 220 14.193 220.059 14.043 220.176 13.926 C 220.293 13.809 220.443 13.75 220.625 13.75 L 221.875 13.75 C 222.057 13.75 222.207 13.809 222.324 13.926 C 222.441 14.043 222.5 14.193 222.5 14.375 Z"/>
</svg>
